<?xml version="1.0"?><svg width="256.463" height="269.104" xmlns="http://www.w3.org/2000/svg">
 <title>lightcolofulbubbles</title>

 <g>
  <title>Layer 1</title>
  <g id="svg_1" opacity="0.5">
   <circle fill="#ffff00" cx="98.347" cy="54.668" r="54.667" id="svg_2"/>
   <circle fill="#ffff00" cx="98.347" cy="43.668" r="41.333" id="svg_3"/>
   <g opacity="0.5" id="svg_4">
    <path fill="#ffff00" d="m128.216995,24.566c-1.470993,1.495001 -2.940994,2.989 -4.411995,4.482c-6.232002,-6.137001 -14.717003,-10.02 -24.152008,-10.276001c0.056999,-2.095999 0.112999,-4.192999 0.169998,-6.289c11.09301,0.302 21.06601,4.867001 28.394005,12.083z" id="svg_5"/>
    <path fill="#ffff00" d="m140.774994,55.723c-2.098007,-0.056999 -4.193008,-0.112999 -6.291,-0.171001c0.257996,-9.435997 -3.158005,-18.116997 -8.949005,-24.675999c1.571999,-1.386999 3.145004,-2.774 4.716995,-4.161999c6.809021,7.709999 10.82402,17.916 10.52301,29.008999z" id="svg_6"/>
    <path fill="#ffff00" d="m132.979004,19.728001c-1.121002,1.142 -2.244003,2.281 -3.367004,3.421999c-7.676003,-7.556999 -18.119003,-12.335999 -29.734001,-12.651c0.042999,-1.599999 0.085999,-3.198999 0.131004,-4.8c12.877998,0.349 24.459999,5.651 32.970001,14.029001z" id="svg_7"/>
    <path fill="#ffff00" d="m147.559006,55.905998c-1.599991,-0.042 -3.19899,-0.086998 -4.798996,-0.129997c0.315994,-11.616001 -3.891006,-22.305 -11.020004,-30.378c1.201004,-1.059 2.400009,-2.117001 3.602005,-3.176001c7.903992,8.952999 12.565994,20.803001 12.216995,33.683998z" id="svg_8"/>
   </g>
  </g>
  <g id="svg_9" opacity="0.5">
   <circle fill="#aaaaff" cx="54.668" cy="122.484" r="54.668" id="svg_10"/>
   <circle fill="#aaaaff" cx="54.667" cy="111.484" r="41.333" id="svg_11"/>
   <g opacity="0.5" id="svg_12">
    <path fill="#aaaaff" d="m84.537003,92.383003c-1.471001,1.494995 -2.941002,2.988998 -4.412003,4.481995c-6.232002,-6.137001 -14.717003,-10.019997 -24.152,-10.276001c0.056999,-2.096001 0.112999,-4.192993 0.170002,-6.288994c11.092999,0.301994 21.065998,4.865997 28.394001,12.083z" id="svg_13"/>
    <path fill="#aaaaff" d="m97.096001,123.539001c-2.098,-0.056999 -4.193001,-0.112999 -6.291,-0.171005c0.258003,-9.435997 -3.157997,-18.116997 -8.948997,-24.675995c1.571999,-1.387001 3.144997,-2.774002 4.716995,-4.162003c6.807999,7.709999 10.823006,17.916 10.523003,29.009003z" id="svg_14"/>
    <path fill="#aaaaff" d="m89.299004,87.543999c-1.121002,1.141998 -2.244003,2.280998 -3.367004,3.422005c-7.676003,-7.557007 -18.118996,-12.336006 -29.733997,-12.651001c0.042999,-1.600006 0.085999,-3.199005 0.130997,-4.800003c12.878002,0.348999 24.460003,5.651001 32.970005,14.028999z" id="svg_15"/>
    <path fill="#aaaaff" d="m103.878998,123.723c-1.599998,-0.042 -3.198997,-0.086998 -4.798996,-0.129997c0.316002,-11.616005 -3.890999,-22.305 -11.020004,-30.378006c1.201004,-1.058998 2.400002,-2.116997 3.602005,-3.175995c7.903999,8.951996 12.566994,20.803001 12.216995,33.683998z" id="svg_16"/>
   </g>
  </g>
  <g id="svg_17" opacity="0.5">
   <circle fill="#ffaaff" cx="201.795" cy="122.484" r="54.668" id="svg_18"/>
   <circle fill="#ffaaff" cx="201.794" cy="111.484" r="41.333" id="svg_19"/>
   <g opacity="0.5" id="svg_20">
    <path fill="#ffaaff" d="m231.664001,92.383003c-1.471008,1.494995 -2.940994,2.988998 -4.412003,4.481995c-6.231995,-6.137001 -14.716995,-10.019997 -24.151993,-10.276001c0.056992,-2.096001 0.112991,-4.192993 0.169998,-6.288994c11.093002,0.301994 21.065994,4.865997 28.393997,12.083z" id="svg_21"/>
    <path fill="#ffaaff" d="m244.223007,123.539001c-2.097992,-0.056999 -4.192993,-0.112999 -6.291,-0.171005c0.257996,-9.435997 -3.15799,-18.116997 -8.94899,-24.675995c1.571991,-1.387001 3.144989,-2.774002 4.716995,-4.162003c6.807983,7.709999 10.822983,17.916 10.522995,29.009003z" id="svg_22"/>
    <path fill="#ffaaff" d="m236.425995,87.543999c-1.121002,1.141998 -2.244003,2.280998 -3.367004,3.422005c-7.675995,-7.557007 -18.118988,-12.336006 -29.733994,-12.651001c0.042999,-1.600006 0.085999,-3.199005 0.130997,-4.800003c12.878006,0.348999 24.460007,5.651001 32.970001,14.028999z" id="svg_23"/>
    <path fill="#ffaaff" d="m251.005997,123.723c-1.599991,-0.042 -3.19899,-0.086998 -4.798996,-0.129997c0.315994,-11.616005 -3.891006,-22.305 -11.020004,-30.378006c1.201004,-1.058998 2.400009,-2.116997 3.602005,-3.175995c7.903992,8.951996 12.565994,20.803001 12.216995,33.683998z" id="svg_24"/>
   </g>
  </g>
  <g id="svg_25" opacity="0.5">
   <circle fill="#aad4ff" cx="76.507" cy="214.438" r="54.668" id="svg_26"/>
   <circle fill="#aad4ff" cx="76.506" cy="203.438" r="41.333" id="svg_27"/>
   <g opacity="0.5" id="svg_28">
    <path fill="#aad4ff" d="m106.375999,184.335999c-1.471001,1.494995 -2.941002,2.988998 -4.412003,4.481995c-6.231995,-6.136993 -14.716995,-10.019989 -24.152,-10.275986c0.057007,-2.096008 0.113007,-4.193008 0.170006,-6.289001c11.092995,0.301987 21.065994,4.865997 28.393997,12.082993z" id="svg_29"/>
    <path fill="#aad4ff" d="m118.934998,215.492004c-2.098,-0.057007 -4.193001,-0.113007 -6.291,-0.171005c0.258003,-9.436005 -3.157997,-18.117004 -8.948997,-24.675995c1.571999,-1.387009 3.144997,-2.774002 4.717003,-4.162003c6.807999,7.709991 10.822998,17.916 10.522995,29.009003z" id="svg_30"/>
    <path fill="#aad4ff" d="m111.138,179.496994c-1.121002,1.141998 -2.244003,2.280991 -3.366997,3.421997c-7.676003,-7.557007 -18.119003,-12.335999 -29.734001,-12.651001c0.042999,-1.600006 0.085999,-3.199005 0.130997,-4.800003c12.877998,0.349014 24.459999,5.651016 32.970001,14.029007z" id="svg_31"/>
    <path fill="#aad4ff" d="m125.718002,215.675995c-1.600006,-0.042007 -3.199005,-0.087006 -4.799004,-0.130005c0.316002,-11.615997 -3.890999,-22.304993 -11.019997,-30.378006c1.200996,-1.05899 2.400002,-2.116989 3.601997,-3.175995c7.903999,8.952011 12.566002,20.803009 12.217003,33.684006z" id="svg_32"/>
   </g>
  </g>
  <circle fill="#aaffaa" stroke="#aaffaa" stroke-width="5" opacity="0.5" cx="156.24307" cy="177.889636" r="43.5" id="svg_33"/>
  <circle fill="#aad4ff" stroke="#aad4ff" stroke-width="5" opacity="0.5" cx="189.731506" cy="62.895996" r="53.450912" id="svg_36"/>
  <circle fill="#ffaaff" stroke="#ffaad4" stroke-width="5" opacity="0.5" cx="54.731506" cy="43.895996" r="34.539832" id="svg_37"/>
  <circle fill="#ffff00" stroke="#ffff00" stroke-width="5" opacity="0.5" cx="200.731506" cy="205.895996" r="44.407207" id="svg_39"/>
 </g>
</svg>